<svg xmlns="http://www.w3.org/2000/svg" width="499" height="499" viewBox="0 0 499 499" version="1.1"><path d="M 243.292 91.742 C 247.027 91.935, 252.877 91.934, 256.292 91.739 C 259.706 91.545, 256.650 91.387, 249.500 91.389 C 242.350 91.390, 239.556 91.550, 243.292 91.742 M 231.269 92.693 C 232.242 92.947, 233.592 92.930, 234.269 92.656 C 234.946 92.382, 234.150 92.175, 232.500 92.195 C 230.850 92.215, 230.296 92.439, 231.269 92.693 M 265.250 92.689 C 266.212 92.941, 267.788 92.941, 268.750 92.689 C 269.712 92.438, 268.925 92.232, 267 92.232 C 265.075 92.232, 264.288 92.438, 265.250 92.689 M 223.269 93.693 C 224.242 93.947, 225.592 93.930, 226.269 93.656 C 226.946 93.382, 226.150 93.175, 224.500 93.195 C 222.850 93.215, 222.296 93.439, 223.269 93.693 M 273 93.611 C 285.458 96.122, 290.011 97, 290.569 97 C 290.928 97, 290.159 97.885, 288.861 98.967 C 287.434 100.156, 287.037 100.947, 287.857 100.967 C 288.626 100.986, 288.973 101.628, 288.658 102.449 C 288.304 103.370, 288.583 103.714, 289.422 103.392 C 290.148 103.113, 291.030 103.636, 291.382 104.554 C 291.848 105.767, 291.609 106.064, 290.506 105.641 C 287.359 104.433, 272.974 101.843, 271.764 102.266 C 271.069 102.508, 272.932 103.050, 275.905 103.469 C 291.089 105.609, 312.060 113.745, 328.606 123.915 C 338.145 129.779, 338.742 129.997, 345.250 129.999 C 350.002 130, 351.990 129.630, 351.967 128.750 C 351.924 127.132, 338.742 117.550, 328.500 111.693 C 313.058 102.862, 289.028 94.551, 276 93.536 C 272.975 93.300, 271.625 93.334, 273 93.611 M 196.220 100.248 C 193.315 101.361, 191.119 102.452, 191.338 102.672 C 191.558 102.891, 194.609 101.961, 198.119 100.605 C 201.628 99.249, 203.825 98.158, 203 98.181 C 202.175 98.205, 199.124 99.135, 196.220 100.248 M 248.250 100.689 C 249.213 100.941, 250.787 100.941, 251.750 100.689 C 252.713 100.438, 251.925 100.232, 250 100.232 C 248.075 100.232, 247.287 100.438, 248.250 100.689 M 234.264 101.718 C 235.784 101.947, 238.034 101.941, 239.264 101.704 C 240.494 101.467, 239.250 101.279, 236.500 101.286 C 233.750 101.294, 232.744 101.488, 234.264 101.718 M 261.768 101.725 C 263.565 101.947, 266.265 101.943, 267.768 101.715 C 269.271 101.486, 267.800 101.304, 264.500 101.310 C 261.200 101.315, 259.971 101.502, 261.768 101.725 M 225.269 102.693 C 226.242 102.947, 227.592 102.930, 228.269 102.656 C 228.946 102.382, 228.150 102.175, 226.500 102.195 C 224.850 102.215, 224.296 102.439, 225.269 102.693 M 182.500 105.952 C 169.951 111.818, 148.048 126.297, 148.016 128.750 C 148.005 129.625, 149.976 130, 154.591 130 C 160.937 130, 161.560 129.766, 171.341 123.711 C 176.929 120.252, 183.861 116.351, 186.747 115.041 C 189.633 113.732, 191.839 112.506, 191.649 112.316 C 190.956 111.622, 179.243 117.513, 169.579 123.415 C 164.123 126.748, 159.510 129.030, 159.330 128.487 C 159.149 127.944, 157.088 127.568, 154.750 127.650 L 150.500 127.801 153.913 124.942 C 155.789 123.369, 157.772 122.359, 158.317 122.696 C 158.863 123.033, 159.007 122.821, 158.639 122.225 C 157.853 120.954, 172.873 111.405, 183.394 106.486 C 187.302 104.659, 190.050 103.161, 189.500 103.156 C 188.950 103.152, 185.800 104.410, 182.500 105.952 M 196.500 110.072 C 194.300 111.130, 193.596 111.715, 194.935 111.372 C 198.596 110.434, 203.714 108.073, 202 108.113 C 201.175 108.133, 198.700 109.014, 196.500 110.072 M 140.747 134.057 C 132.634 140.744, 116.629 161.610, 109.342 175 C 105.832 181.448, 99 198.141, 96.654 206 C 90.841 225.473, 89.322 255.473, 93.032 277.500 C 97.159 301.996, 107.396 325.699, 122.402 345.500 C 129.857 355.338, 142.781 369, 144.633 369 C 145.635 369, 145.990 367.464, 145.964 363.250 C 145.929 357.742, 145.714 357.269, 140.835 352 C 121.065 330.650, 108.134 304.430, 102.862 275 C 101.091 265.112, 101.097 234.833, 102.873 225 C 104.752 214.591, 110.315 196.543, 114.168 188.353 C 121.008 173.815, 133.455 155.605, 142.396 147.054 C 145.789 143.809, 146 143.238, 146 137.304 C 146 133.837, 145.653 131, 145.228 131 C 144.803 131, 142.787 132.376, 140.747 134.057 M 381.675 152.712 C 381.405 153.146, 385.190 153.356, 390.086 153.179 L 398.987 152.858 399.253 223.679 L 399.520 294.500 399.510 223.500 L 399.500 152.500 390.832 152.212 C 386.065 152.054, 381.944 152.279, 381.675 152.712 M 382.471 228 C 382.471 262.925, 382.596 277.212, 382.749 259.750 C 382.903 242.287, 382.903 213.712, 382.749 196.250 C 382.596 178.787, 382.471 193.075, 382.471 228 M 290.015 297.750 C 290.025 298.898, 290.286 299.098, 290.774 298.331 C 291.183 297.689, 293.089 296.973, 295.009 296.741 C 298.336 296.340, 298.300 296.313, 294.250 296.160 C 290.803 296.030, 290.003 296.331, 290.015 297.750 M 381.195 298.500 C 381.215 300.150, 381.439 300.704, 381.693 299.731 C 381.947 298.758, 381.930 297.408, 381.656 296.731 C 381.382 296.054, 381.175 296.850, 381.195 298.500 M 302.500 297.892 C 306.125 298.443, 306.558 298.828, 307.118 302 C 307.732 305.474, 307.738 305.477, 307.868 302.450 C 308.041 298.460, 306.405 296.968, 302.050 297.142 L 298.500 297.284 302.500 297.892 M 398.232 300 C 398.232 301.925, 398.438 302.712, 398.689 301.750 C 398.941 300.788, 398.941 299.212, 398.689 298.250 C 398.438 297.288, 398.232 298.075, 398.232 300 M 291.232 304 C 291.232 305.925, 291.438 306.712, 291.689 305.750 C 291.941 304.788, 291.941 303.212, 291.689 302.250 C 291.438 301.288, 291.232 302.075, 291.232 304 M 378.789 307.526 C 378.480 308.612, 377.922 310.400, 377.550 311.500 C 377.177 312.600, 377.605 312.236, 378.500 310.690 C 379.395 309.145, 379.952 307.356, 379.739 306.716 C 379.525 306.075, 379.098 306.440, 378.789 307.526 M 293.566 315.250 C 294.878 319.460, 295.949 322, 296.415 322 C 296.670 322, 296.189 319.975, 295.345 317.500 C 293.809 312.992, 292.247 311.017, 293.566 315.250 M 391.971 320.672 C 390.031 324.617, 388.803 327.622, 389.244 327.349 C 390.367 326.655, 396.179 314.981, 395.806 314.168 C 395.638 313.800, 393.912 316.727, 391.971 320.672 M 313 319.313 C 313 319.485, 314.462 320.948, 316.250 322.563 L 319.500 325.500 316.563 322.250 C 313.825 319.221, 313 318.540, 313 319.313 M 324.441 328.445 C 325.509 329.300, 327.084 329.964, 327.941 329.921 C 329.288 329.853, 329.296 329.766, 328 329.286 C 327.175 328.980, 325.600 328.316, 324.500 327.810 C 322.532 326.904, 322.531 326.915, 324.441 328.445 M 362 328.500 C 360.625 329.286, 359.976 329.945, 360.559 329.965 C 361.141 329.984, 362.491 329.339, 363.559 328.532 C 366.028 326.664, 365.239 326.648, 362 328.500 M 305.500 335 C 308.209 337.750, 310.650 340, 310.925 340 C 311.200 340, 309.209 337.750, 306.500 335 C 303.791 332.250, 301.350 330, 301.075 330 C 300.800 330, 302.791 332.250, 305.500 335 M 343.269 332.693 C 344.242 332.947, 345.592 332.930, 346.269 332.656 C 346.946 332.382, 346.150 332.175, 344.500 332.195 C 342.850 332.215, 342.296 332.439, 343.269 332.693 M 379.962 337.072 L 376.500 340.144 380.250 337.453 C 383.564 335.076, 384.642 334, 383.712 334 C 383.554 334, 381.866 335.382, 379.962 337.072 M 312 340.493 C 312 341.170, 320.123 345.211, 320.575 344.758 C 320.785 344.549, 318.941 343.398, 316.478 342.202 C 314.015 341.005, 312 340.236, 312 340.493 M 373 341.500 C 371.625 342.286, 370.976 342.945, 371.559 342.965 C 372.141 342.984, 373.491 342.339, 374.559 341.532 C 377.028 339.664, 376.239 339.648, 373 341.500 M 148 371.760 C 148 372.865, 160.463 382.196, 168.014 386.744 C 175.187 391.064, 178.440 392.521, 177.493 390.989 C 177.157 390.445, 176.447 390, 175.916 390 C 174.513 390, 162.514 382.353, 155.190 376.792 L 148.880 372 155.510 372 C 161.136 372, 162.772 372.428, 166.320 374.830 C 171.641 378.432, 173 379.220, 173 378.701 C 173 378.471, 170.532 376.644, 167.515 374.642 C 162.513 371.320, 161.414 371, 155.015 371 C 151.157 371, 148 371.342, 148 371.760 M 330 375.598 C 311.938 388.052, 286.500 396.638, 261 398.887 C 253.706 399.530, 252.777 399.756, 257 399.857 C 261.941 399.975, 275.881 398.242, 284.905 396.388 C 287.254 395.905, 288.102 396.025, 287.639 396.775 C 287.270 397.373, 287.473 398.174, 288.090 398.556 C 288.888 399.049, 288.820 399.523, 287.857 400.191 C 286.928 400.834, 287.250 400.919, 288.875 400.458 C 290.491 400.001, 291.032 400.140, 290.566 400.893 C 290.168 401.538, 290.637 402.043, 291.691 402.102 C 293.990 402.232, 289.072 403.507, 277 405.911 C 271.775 406.951, 268.745 407.847, 270.267 407.901 C 274.505 408.052, 291.450 404.238, 301.500 400.871 C 311.715 397.448, 326.099 390.718, 333.500 385.899 C 342.349 380.137, 352 372.837, 352 371.905 C 352 371.407, 348.512 371.026, 344.250 371.058 C 336.742 371.115, 336.297 371.257, 330 375.598 M 176 380.496 C 176 381.164, 190.122 388.212, 190.567 387.766 C 190.767 387.567, 187.570 385.742, 183.465 383.710 C 179.359 381.679, 176 380.232, 176 380.496 M 199.500 391.536 C 201.150 392.292, 203.175 392.896, 204 392.879 C 204.825 392.862, 203.925 392.241, 202 391.500 C 197.434 389.742, 195.638 389.768, 199.500 391.536 M 207.500 394 C 210.249 395.181, 211.828 395.181, 210 394 C 209.175 393.467, 207.825 393.055, 207 393.086 C 206.011 393.122, 206.181 393.433, 207.500 394 M 290.500 395 C 289.181 395.567, 289.011 395.878, 290 395.914 C 290.825 395.945, 292.175 395.533, 293 395 C 294.828 393.819, 293.249 393.819, 290.500 395 M 223.269 397.693 C 224.242 397.947, 225.592 397.930, 226.269 397.656 C 226.946 397.382, 226.150 397.175, 224.500 397.195 C 222.850 397.215, 222.296 397.439, 223.269 397.693 M 230.269 398.693 C 231.242 398.947, 232.592 398.930, 233.269 398.656 C 233.946 398.382, 233.150 398.175, 231.500 398.195 C 229.850 398.215, 229.296 398.439, 230.269 398.693 M 237.750 399.723 C 239.537 399.945, 242.463 399.945, 244.250 399.723 C 246.037 399.502, 244.575 399.320, 241 399.320 C 237.425 399.320, 235.963 399.502, 237.750 399.723 M 203.500 402.536 C 205.150 403.292, 207.175 403.896, 208 403.879 C 208.825 403.862, 207.925 403.241, 206 402.500 C 201.434 400.742, 199.638 400.768, 203.500 402.536 M 226.269 407.693 C 227.242 407.947, 228.592 407.930, 229.269 407.656 C 229.946 407.382, 229.150 407.175, 227.500 407.195 C 225.850 407.215, 225.296 407.439, 226.269 407.693 M 235.750 408.732 C 238.088 408.943, 241.912 408.943, 244.250 408.732 C 246.588 408.522, 244.675 408.349, 240 408.349 C 235.325 408.349, 233.412 408.522, 235.750 408.732 M 254.280 408.736 C 256.909 408.943, 260.959 408.940, 263.280 408.731 C 265.601 408.521, 263.450 408.352, 258.500 408.355 C 253.550 408.358, 251.651 408.530, 254.280 408.736" stroke="none" fill="#8d5837" fill-rule="evenodd"/><path d="M 227 93.511 C 210.962 95.949, 198.854 99.595, 182.957 106.775 C 173.288 111.143, 157.851 120.950, 158.639 122.225 C 159.007 122.821, 158.863 123.033, 158.317 122.696 C 157.772 122.359, 155.789 123.369, 153.913 124.942 L 150.500 127.801 154.750 127.650 C 157.088 127.568, 159.149 127.944, 159.330 128.487 C 159.510 129.030, 164.259 126.659, 169.883 123.218 C 197.467 106.340, 228.429 98.850, 261.576 101.038 C 272.029 101.728, 286.203 103.989, 290.563 105.662 C 291.606 106.063, 291.840 105.747, 291.382 104.554 C 291.030 103.636, 290.148 103.113, 289.422 103.392 C 288.583 103.714, 288.304 103.370, 288.658 102.449 C 288.973 101.628, 288.626 100.986, 287.857 100.967 C 287.037 100.947, 287.434 100.156, 288.861 98.967 C 290.159 97.885, 290.928 97, 290.569 97 C 290.210 97, 286.672 96.354, 282.708 95.564 C 263.281 91.694, 243.705 90.972, 227 93.511 M 382.500 225.250 C 382.500 303.705, 382.555 302.842, 376.867 314.212 C 371.513 324.914, 363.983 330.169, 351.500 331.916 C 339.940 333.533, 328.288 331.364, 320.804 326.202 C 313.094 320.884, 309.426 315.005, 307.595 305.037 L 306.394 298.500 299.172 297.608 C 295.200 297.118, 291.718 296.948, 291.435 297.231 C 291.152 297.514, 291.407 300.840, 292.002 304.623 C 296.406 332.645, 314.473 347.918, 343.292 347.983 C 366.143 348.034, 382.322 339.334, 391.359 322.137 C 398.690 308.186, 398.387 312.023, 398.760 228.250 L 399.094 153 390.797 153 L 382.500 153 382.500 225.250 M 155.190 376.766 C 176.927 393.183, 198.028 402.103, 226.757 407.020 C 237.531 408.864, 264.043 408.330, 276 406.028 C 288.793 403.565, 294.097 402.238, 291.691 402.102 C 290.637 402.043, 290.168 401.538, 290.566 400.893 C 291.027 400.148, 290.473 399.981, 288.875 400.384 C 287.569 400.712, 287.081 400.717, 287.792 400.394 C 288.847 399.913, 288.847 399.519, 287.792 398.239 C 286.643 396.846, 286.758 396.810, 288.836 397.917 C 290.120 398.602, 291.372 398.961, 291.618 398.716 C 291.863 398.470, 290.812 397.755, 289.282 397.128 C 287.113 396.237, 284.847 396.327, 279 397.534 C 266.945 400.023, 241.499 400.557, 229 398.584 C 205.073 394.808, 183.666 386.704, 166.320 374.855 C 162.758 372.422, 161.159 372, 155.510 372 L 148.880 372 155.190 376.766 M 290.500 395 C 289.181 395.567, 289.011 395.878, 290 395.914 C 290.825 395.945, 292.175 395.533, 293 395 C 294.828 393.819, 293.249 393.819, 290.500 395" stroke="none" fill="#d1a591" fill-rule="evenodd"/></svg>